# xmcd
#
# Track frame offsets: 
#        150
#        16592
#        34054
#        51567
#        71279
#        92166
#        107517
#        125263
#        143711
#        160724
#
# Disc length: 2332 seconds
#
# Revision: 0
# Processed by: cddbd v1.5.2PL0 Copyright (c) Steve Scherf et al.
# Submitted via: ExactAudioCopyFreeDBPlugin 1.0
#
DISCID=77091a0a
DTITLE=Wade Lashley - Come On Sundown
DYEAR=2010
DGENRE=Country
TTITLE0=Virginia Take Your Leave
TTITLE1=Hands of Time
TTITLE2=The Reasons Why
TTITLE3=Cross the Wire
TTITLE4=Mountain Moonlight Song
TTITLE5=Too Far Gone
TTITLE6=Ricochet
TTITLE7=Determined Man
TTITLE8=Come On Sundown
TTITLE9=Wings to Fly
EXTD=
EXTT0=
EXTT1=
EXTT2=
EXTT3=
EXTT4=
EXTT5=
EXTT6=
EXTT7=
EXTT8=
EXTT9=
PLAYORDER=
